<?xml version="1.0" encoding="UTF-8"?>
<svg width="32px" height="32px" viewBox="0 0 32 32" version="1.1" xmlns="http://www.w3.org/2000/svg" xmlns:xlink="http://www.w3.org/1999/xlink">
    <!-- Generator: Sketch 53.2 (72643) - https://sketchapp.com -->
    <title>icon-plus--white</title>
    <desc>Created with Sketch.</desc>
    <g id="Page-1" stroke="none" stroke-width="1" fill="none" fill-rule="evenodd">
        <g id="icon-plus--white" fill="#FFFFFF" fill-rule="nonzero">
            <path d="M1.119,16.841 C0.5,16.841 0.008,16.333 0.008,15.714 C0.008,15.095 0.5,14.603 1.119,14.603 L14.594,14.603 L14.594,1.127 C14.595,0.508 15.103,0 15.722,0 C16.341,0 16.833,0.508 16.833,1.127 L16.833,14.603 L30.308,14.603 C30.927,14.603 31.435,15.095 31.435,15.714 C31.435,16.333 30.927,16.841 30.308,16.841 L16.833,16.841 L16.833,30.317 C16.833,30.936 16.341,31.444 15.722,31.444 C15.103,31.444 14.595,30.936 14.595,30.317 L14.595,16.841 L1.119,16.841 Z" id="Path"></path>
        </g>
    </g>
</svg>